<?xml version="1.0" encoding="utf-8"?>
<!-- Generator: Adobe Illustrator 26.0.2, SVG Export Plug-In . SVG Version: 6.00 Build 0)  -->
<svg version="1.1" id="Layer_1" xmlns="http://www.w3.org/2000/svg" xmlns:xlink="http://www.w3.org/1999/xlink" x="0px" y="0px"
	 viewBox="0 0 1280 1280" style="enable-background:new 0 0 1280 1280;" xml:space="preserve">
<style type="text/css">
	.st0{fill:url(#SVGID_1_);}
	.st1{fill:#FFFFFF;}
	
		.st2{clip-path:url(#SVGID_00000070109322123125406320000002753880802606574215_);fill:url(#SVGID_00000159454000251760617760000004632908775492756644_);}
	.st3{opacity:0.08;}
	
		.st4{clip-path:url(#SVGID_00000049941696793461165570000000885285510112024492_);fill:url(#SVGID_00000002343221784369202810000004081365968534570911_);}
</style>
<g>
	<defs>
		<path id="SVGID_00000112615369174463836120000006313351995526717075_" d="M885.5,497.68c6.66,8.32,7.49,16.92,2.22,23.86
			c-5.83,7.77-16.92,9.43-24.69,3.61l-0.55-0.55c-13.59-14.7-21.64-28.85-22.47-56.31c0-45.77,37.73-83.22,84.05-83.22
			c46.32,0,84.05,37.45,84.05,83.22c0,21.64-9.16,43.27-24.97,59.09l-0.55,0.55c-3.05,2.22-6.66,3.33-10.26,3.33
			c-5.55,0-11.1-2.77-14.42-7.49c-5.55-7.77-2.22-18.59,3.61-24.69c7.49-8.88,11.1-18.31,11.1-30.51
			c0-26.35-21.64-47.99-48.54-47.99c-26.63,0-48.54,21.64-48.54,47.99C876.34,484.36,878.84,488.52,885.5,497.68z M879.12,568.69
			c-43.27-18.59-65.47-64.08-64.91-99.86c0-60.19,49.38-109.29,109.85-109.29c60.75,0,109.85,49.1,109.85,109.29
			c0,52.98-35.78,87.38-66.85,100.69c-4.44,1.39-8.04,4.44-10.26,8.6c-2.22,4.16-2.5,8.88-1.11,13.59
			c2.22,7.49,9.43,12.76,17.2,12.76c1.94,0,3.61-0.28,5.55-0.83c57.14-20.53,90.43-69.63,90.99-134.54
			c0.28-80.17-64.91-145.08-145.08-145.08c-39.39,0-76.28,15.26-104.02,43.27c-27.18,27.46-41.89,63.52-41.61,101.53
			c0,58.81,34.95,111.24,89.04,133.43c9.15,3.05,19.42-1.94,22.47-11.37c1.39-4.44,1.11-9.15-1.11-13.59
			C887.16,573.13,883.28,570.08,879.12,568.69z M977.26,795.73c-30.96-4.18-32.08-23.99-31.8-58.3V528.76
			c0-12.27-10.04-22.04-22.04-22.04c-12.27,0-22.04,10.04-22.04,22.04v208.94c0,66.95,26.22,102.38,75.6,102.38
			c12.27,0,22.04-10.04,22.04-22.04C999.02,806.33,990.37,797.69,977.26,795.73z M533.93,635.3c-31.04,0-60.7,14.41-80.11,38.53
			c-19.4-24.39-48.78-38.53-80.11-38.53c-56.27,0-102,45.73-102,101.73v80.13c0,11.98,9.8,21.51,21.51,21.51
			c11.98,0,21.51-9.8,21.51-21.51V738.3c0-33.38,27.32-60.4,60.65-58.73c30.41,1.52,54.79,26.59,54.79,57.37v79.97
			c0,12.57,10.28,22.56,22.56,22.56c12.57,0,22.56-10.28,22.56-22.56V738.3c0-33.38,27.32-60.4,60.65-58.73
			c30.41,1.52,54.79,26.59,54.79,57.37v79.96c0,12.27,10.04,22.04,22.04,22.04c12.27,0,22.04-10.04,22.04-22.04v-79.87
			C635.94,681.04,590.2,635.3,533.93,635.3z M186.71,715.09l-79.81,0.27c-9.54,0-17.26-7.53-17.58-16.99
			c-0.33-9.88,8-17.91,17.89-17.91h113.03c12.27,0,22.04-10.04,22.04-22.04c0-12.27-10.04-22.04-22.04-22.04H107.23
			c-34.51-0.28-62.33,27.55-62.33,61.78c0,34.23,27.83,62.06,62.33,62.06l79.8-0.27c9.14,0,16.6,6.96,17.38,15.9
			c0.91,10.43-7.51,19-17.98,19H71.68c-12.27,0-22.04,10.04-22.04,22.04c0,12.27,10.04,22.04,22.04,22.04h115.03
			c34.15,0,62.19-27.77,62.19-61.92C248.63,743.13,220.86,715.09,186.71,715.09z M1170.37,759.16h-132.29
			c8.78,21.41,29.91,35.68,53.24,35.68h1.1l0.22-0.01c11.41-0.54,18.83-0.9,36.56-14.26c11.53-8.78,21.69-10.7,31.29-5.21
			c5.49,3.29,9.06,8.78,10.16,15.1c1.1,5.76-0.55,11.53-4.39,15.64c-19.21,21.13-44.47,32.11-74.65,32.66
			c-55.71,0-101-45.29-101-100.73c0-55.44,45.29-100.73,101-100.73c55.72,0,101,45.29,100.45,100.18
			C1192.05,749.28,1182.45,759.16,1170.37,759.16z M1144.86,716.14c-8.88-21.64-29.68-35.78-53.54-35.78
			c-23.3,0-44.66,14.42-53.53,35.78H1144.86z M843.91,635.08c-12.41,0-22.28,10.15-22.28,22.28v78.77
			c0,33.38-27.32,60.4-60.65,58.71c-30.41-1.54-54.78-26.87-54.78-57.64v-79.96c0-12.28-10.04-22.04-22.04-22.04
			c-12.28,0-22.04,10.04-22.04,22.04v79.71c0,56.16,45.88,102.04,102.32,102.04c56.44,0,102.32-45.88,102.32-102.04v-79.59
			C866.19,645.24,856.04,635.08,843.91,635.08z"/>
	</defs>
	<clipPath id="SVGID_00000106127390000200784240000008419494423723908509_">
		<use xlink:href="#SVGID_00000112615369174463836120000006313351995526717075_"  style="overflow:visible;"/>
	</clipPath>
	<linearGradient id="SVGID_1_" gradientUnits="userSpaceOnUse" x1="-52.5574" y1="581.8085" x2="1290.7277" y2="581.8085">
		<stop  offset="5.540901e-07" style="stop-color:#DD22E0"/>
		<stop  offset="1" style="stop-color:#6243F4"/>
	</linearGradient>
	
		<rect x="-52.56" y="-89.83" style="clip-path:url(#SVGID_00000106127390000200784240000008419494423723908509_);fill:url(#SVGID_1_);" width="1343.29" height="1343.29"/>
</g>
</svg>
